<svg xmlns="http://www.w3.org/2000/svg" xmlns:xlink="http://www.w3.org/1999/xlink" contentStyleType="text/css" data-diagram-type="CLASS" height="866px" preserveAspectRatio="none" style="width:1993px;height:866px;background:#FFFFFF;" version="1.1" viewBox="0 0 1993 866" width="1993px" zoomAndPan="magnify"><?plantuml 1.2026.3beta6?><defs/><g><!--class VendingMachine--><g class="entity" data-qualified-name="VendingMachine" data-source-line="1" id="ent0002"><rect fill="#F1F1F1" height="276.1563" rx="2.5" ry="2.5" style="stroke:#181818;stroke-width:0.5;" width="448.5703" x="659" y="229.08"/><ellipse cx="820.9331" cy="245.08" fill="#ADD1B2" rx="11" ry="11" style="stroke:#181818;stroke-width:1;"/><path d="M823.9019,250.7206 Q823.3237,251.0175 822.6831,251.1581 Q822.0425,251.3144 821.3394,251.3144 Q818.8394,251.3144 817.5112,249.6738 Q816.1987,248.0175 816.1987,244.8925 Q816.1987,241.7675 817.5112,240.1113 Q818.8394,238.455 821.3394,238.455 Q822.0425,238.455 822.6831,238.6113 Q823.3394,238.7675 823.9019,239.0644 L823.9019,241.7831 Q823.2769,241.205 822.6831,240.9394 Q822.0894,240.6581 821.4644,240.6581 Q820.1206,240.6581 819.4331,241.7363 Q818.7456,242.7988 818.7456,244.8925 Q818.7456,246.9863 819.4331,248.0644 Q820.1206,249.1269 821.4644,249.1269 Q822.0894,249.1269 822.6831,248.8613 Q823.2769,248.58 823.9019,248.0019 L823.9019,250.7206 Z " fill="#000000"/><text fill="#000000" font-family="sans-serif" font-size="14" lengthAdjust="spacing" textLength="116.2041" x="841.4331" y="249.9267">VendingMachine</text><line style="stroke:#181818;stroke-width:0.5;" x1="660" x2="1106.5703" y1="261.08" y2="261.08"/><g data-visibility-modifier="PRIVATE_FIELD"><rect fill="none" height="6" style="stroke:#C82930;stroke-width:1;" width="6" x="667" y="271.7284"/></g><text fill="#000000" font-family="sans-serif" font-size="14" lengthAdjust="spacing" textLength="142.666" x="679" y="278.0751">inventory: Inventory</text><g data-visibility-modifier="PRIVATE_FIELD"><rect fill="none" height="6" style="stroke:#C82930;stroke-width:1;" width="6" x="667" y="288.0253"/></g><text fill="#000000" font-family="sans-serif" font-size="14" lengthAdjust="spacing" textLength="250.5439" x="679" y="294.372">currentState: VendingMachineState</text><g data-visibility-modifier="PRIVATE_FIELD"><rect fill="none" height="6" style="stroke:#C82930;stroke-width:1;" width="6" x="667" y="304.3222"/></g><text fill="#000000" font-family="sans-serif" font-size="14" lengthAdjust="spacing" textLength="82.5371" x="679" y="310.6689">balance: int</text><g data-visibility-modifier="PRIVATE_FIELD"><rect fill="none" height="6" style="stroke:#C82930;stroke-width:1;" width="6" x="667" y="320.6191"/></g><text fill="#000000" font-family="sans-serif" font-size="14" lengthAdjust="spacing" textLength="311.042" x="679" y="326.9657">observers : List&lt;VendingMachineObserver&gt;</text><line style="stroke:#181818;stroke-width:0.5;" x1="660" x2="1106.5703" y1="334.2675" y2="334.2675"/><g data-visibility-modifier="PUBLIC_METHOD"><ellipse cx="670" cy="347.9159" fill="#84BE84" rx="3" ry="3" style="stroke:#038048;stroke-width:1;"/></g><text fill="#000000" font-family="sans-serif" font-size="14" lengthAdjust="spacing" textLength="422.5703" x="679" y="351.2626">setState(vendingMachineState: VendingMachineState): void</text><g data-visibility-modifier="PUBLIC_METHOD"><ellipse cx="670" cy="364.2128" fill="#84BE84" rx="3" ry="3" style="stroke:#038048;stroke-width:1;"/></g><text fill="#000000" font-family="sans-serif" font-size="14" lengthAdjust="spacing" textLength="212.1191" x="679" y="367.5595">selectItem(String slotId) : void</text><g data-visibility-modifier="PUBLIC_METHOD"><ellipse cx="670" cy="380.5097" fill="#84BE84" rx="3" ry="3" style="stroke:#038048;stroke-width:1;"/></g><text fill="#000000" font-family="sans-serif" font-size="14" lengthAdjust="spacing" textLength="217.2188" x="679" y="383.8564">insertMoney(int amount) : void</text><g data-visibility-modifier="PUBLIC_METHOD"><ellipse cx="670" cy="396.8066" fill="#84BE84" rx="3" ry="3" style="stroke:#038048;stroke-width:1;"/></g><text fill="#000000" font-family="sans-serif" font-size="14" lengthAdjust="spacing" textLength="174.7334" x="679" y="400.1532">dispenseItem() : boolean</text><g data-visibility-modifier="PUBLIC_METHOD"><ellipse cx="670" cy="413.1034" fill="#84BE84" rx="3" ry="3" style="stroke:#038048;stroke-width:1;"/></g><text fill="#000000" font-family="sans-serif" font-size="14" lengthAdjust="spacing" textLength="173.0859" x="679" y="416.4501">cancelTrnsaction() : void</text><g data-visibility-modifier="PUBLIC_METHOD"><ellipse cx="670" cy="429.4003" fill="#84BE84" rx="3" ry="3" style="stroke:#038048;stroke-width:1;"/></g><text fill="#000000" font-family="sans-serif" font-size="14" lengthAdjust="spacing" textLength="283.1172" x="679" y="432.747">checkAvailability(String slotId) : boolean</text><g data-visibility-modifier="PUBLIC_METHOD"><ellipse cx="670" cy="445.6972" fill="#84BE84" rx="3" ry="3" style="stroke:#038048;stroke-width:1;"/></g><text fill="#000000" font-family="sans-serif" font-size="14" lengthAdjust="spacing" textLength="111.5557" x="679" y="449.0439">notifyAll() : void</text><g data-visibility-modifier="PUBLIC_METHOD"><ellipse cx="670" cy="461.9941" fill="#84BE84" rx="3" ry="3" style="stroke:#038048;stroke-width:1;"/></g><text fill="#000000" font-family="sans-serif" font-size="14" lengthAdjust="spacing" textLength="391.3916" x="679" y="465.3407">addObserver(VendingMachineObserver observer) : void</text><g data-visibility-modifier="PUBLIC_METHOD"><ellipse cx="670" cy="478.2909" fill="#84BE84" rx="3" ry="3" style="stroke:#038048;stroke-width:1;"/></g><text fill="#000000" font-family="sans-serif" font-size="14" lengthAdjust="spacing" textLength="418.5098" x="679" y="481.6376">removeObserver(VendingMachineObserver observer) : void</text><g data-visibility-modifier="PUBLIC_METHOD"><ellipse cx="670" cy="494.5878" fill="#84BE84" rx="3" ry="3" style="stroke:#038048;stroke-width:1;"/></g><text fill="#000000" font-family="sans-serif" font-size="14" lengthAdjust="spacing" textLength="163.8711" x="679" y="497.9345">addSlot(Slot slot) : void</text></g><!--class Item--><g class="entity" data-qualified-name="Item" data-source-line="19" id="ent0003"><rect fill="#F1F1F1" height="145.7813" rx="2.5" ry="2.5" style="stroke:#181818;stroke-width:0.5;" width="154.3311" x="1013.12" y="15.15"/><ellipse cx="1070.101" cy="31.15" fill="#ADD1B2" rx="11" ry="11" style="stroke:#181818;stroke-width:1;"/><path d="M1073.0697,36.7906 Q1072.4916,37.0875 1071.851,37.2281 Q1071.2103,37.3844 1070.5072,37.3844 Q1068.0072,37.3844 1066.6791,35.7437 Q1065.3666,34.0875 1065.3666,30.9625 Q1065.3666,27.8375 1066.6791,26.1812 Q1068.0072,24.525 1070.5072,24.525 Q1071.2103,24.525 1071.851,24.6812 Q1072.5072,24.8375 1073.0697,25.1344 L1073.0697,27.8531 Q1072.4447,27.275 1071.851,27.0094 Q1071.2572,26.7281 1070.6322,26.7281 Q1069.2885,26.7281 1068.601,27.8062 Q1067.9135,28.8687 1067.9135,30.9625 Q1067.9135,33.0562 1068.601,34.1344 Q1069.2885,35.1969 1070.6322,35.1969 Q1071.2572,35.1969 1071.851,34.9312 Q1072.4447,34.65 1073.0697,34.0719 L1073.0697,36.7906 Z " fill="#000000"/><text fill="#000000" font-family="sans-serif" font-size="14" lengthAdjust="spacing" textLength="31.8691" x="1090.601" y="35.9967">Item</text><line style="stroke:#181818;stroke-width:0.5;" x1="1014.12" x2="1166.4511" y1="47.15" y2="47.15"/><g data-visibility-modifier="PRIVATE_FIELD"><rect fill="none" height="6" style="stroke:#C82930;stroke-width:1;" width="6" x="1021.12" y="57.7984"/></g><text fill="#000000" font-family="sans-serif" font-size="14" lengthAdjust="spacing" textLength="100.0439" x="1033.12" y="64.1451">itemId : String</text><g data-visibility-modifier="PRIVATE_FIELD"><rect fill="none" height="6" style="stroke:#C82930;stroke-width:1;" width="6" x="1021.12" y="74.0953"/></g><text fill="#000000" font-family="sans-serif" font-size="14" lengthAdjust="spacing" textLength="128.3311" x="1033.12" y="80.442">itemName : String</text><g data-visibility-modifier="PRIVATE_FIELD"><rect fill="none" height="6" style="stroke:#C82930;stroke-width:1;" width="6" x="1021.12" y="90.3922"/></g><text fill="#000000" font-family="sans-serif" font-size="14" lengthAdjust="spacing" textLength="60.915" x="1033.12" y="96.7389">cost : int</text><line style="stroke:#181818;stroke-width:0.5;" x1="1014.12" x2="1166.4511" y1="104.0406" y2="104.0406"/><g data-visibility-modifier="PUBLIC_METHOD"><ellipse cx="1024.12" cy="117.6891" fill="#84BE84" rx="3" ry="3" style="stroke:#038048;stroke-width:1;"/></g><text fill="#000000" font-family="sans-serif" font-size="14" lengthAdjust="spacing" textLength="78.7979" x="1033.12" y="121.0357">getItemId()</text><g data-visibility-modifier="PUBLIC_METHOD"><ellipse cx="1024.12" cy="133.9859" fill="#84BE84" rx="3" ry="3" style="stroke:#038048;stroke-width:1;"/></g><text fill="#000000" font-family="sans-serif" font-size="14" lengthAdjust="spacing" textLength="107.085" x="1033.12" y="137.3326">getItemName()</text><g data-visibility-modifier="PUBLIC_METHOD"><ellipse cx="1024.12" cy="150.2828" fill="#84BE84" rx="3" ry="3" style="stroke:#038048;stroke-width:1;"/></g><text fill="#000000" font-family="sans-serif" font-size="14" lengthAdjust="spacing" textLength="65.0371" x="1033.12" y="153.6295">getCost()</text></g><!--class Slot--><g class="entity" data-qualified-name="Slot" data-source-line="28" id="ent0004"><rect fill="#F1F1F1" height="194.6719" rx="2.5" ry="2.5" style="stroke:#181818;stroke-width:0.5;" width="177.4365" x="1211.57" y="269.82"/><ellipse cx="1282.6227" cy="285.82" fill="#ADD1B2" rx="11" ry="11" style="stroke:#181818;stroke-width:1;"/><path d="M1285.5915,291.4606 Q1285.0134,291.7575 1284.3727,291.8981 Q1283.7321,292.0544 1283.029,292.0544 Q1280.529,292.0544 1279.2009,290.4138 Q1277.8884,288.7575 1277.8884,285.6325 Q1277.8884,282.5075 1279.2009,280.8513 Q1280.529,279.195 1283.029,279.195 Q1283.7321,279.195 1284.3727,279.3513 Q1285.029,279.5075 1285.5915,279.8044 L1285.5915,282.5231 Q1284.9665,281.945 1284.3727,281.6794 Q1283.779,281.3981 1283.154,281.3981 Q1281.8102,281.3981 1281.1227,282.4763 Q1280.4352,283.5388 1280.4352,285.6325 Q1280.4352,287.7263 1281.1227,288.8044 Q1281.8102,289.8669 1283.154,289.8669 Q1283.779,289.8669 1284.3727,289.6013 Q1284.9665,289.32 1285.5915,288.7419 L1285.5915,291.4606 Z " fill="#000000"/><text fill="#000000" font-family="sans-serif" font-size="14" lengthAdjust="spacing" textLength="26.8311" x="1303.1227" y="290.6667">Slot</text><line style="stroke:#181818;stroke-width:0.5;" x1="1212.57" x2="1388.0065" y1="301.82" y2="301.82"/><g data-visibility-modifier="PRIVATE_FIELD"><rect fill="none" height="6" style="stroke:#C82930;stroke-width:1;" width="6" x="1219.57" y="312.4684"/></g><text fill="#000000" font-family="sans-serif" font-size="14" lengthAdjust="spacing" textLength="89.2021" x="1231.57" y="318.8151">slotId: String</text><g data-visibility-modifier="PRIVATE_FIELD"><rect fill="none" height="6" style="stroke:#C82930;stroke-width:1;" width="6" x="1219.57" y="328.7653"/></g><text fill="#000000" font-family="sans-serif" font-size="14" lengthAdjust="spacing" textLength="86.5225" x="1231.57" y="335.112">capacity: int</text><g data-visibility-modifier="PRIVATE_FIELD"><rect fill="none" height="6" style="stroke:#C82930;stroke-width:1;" width="6" x="1219.57" y="345.0622"/></g><text fill="#000000" font-family="sans-serif" font-size="14" lengthAdjust="spacing" textLength="72.666" x="1231.57" y="351.4089">item: Item</text><g data-visibility-modifier="PRIVATE_FIELD"><rect fill="none" height="6" style="stroke:#C82930;stroke-width:1;" width="6" x="1219.57" y="361.3591"/></g><text fill="#000000" font-family="sans-serif" font-size="14" lengthAdjust="spacing" textLength="85.7842" x="1231.57" y="367.7057">quantity: int</text><line style="stroke:#181818;stroke-width:0.5;" x1="1212.57" x2="1388.0065" y1="375.0075" y2="375.0075"/><g data-visibility-modifier="PUBLIC_METHOD"><ellipse cx="1222.57" cy="388.6559" fill="#84BE84" rx="3" ry="3" style="stroke:#038048;stroke-width:1;"/></g><text fill="#000000" font-family="sans-serif" font-size="14" lengthAdjust="spacing" textLength="124.708" x="1231.57" y="392.0026">getSlotId(): String</text><g data-visibility-modifier="PUBLIC_METHOD"><ellipse cx="1222.57" cy="404.9528" fill="#84BE84" rx="3" ry="3" style="stroke:#038048;stroke-width:1;"/></g><text fill="#000000" font-family="sans-serif" font-size="14" lengthAdjust="spacing" textLength="122.5137" x="1231.57" y="408.2995">getCapacity(): int</text><g data-visibility-modifier="PUBLIC_METHOD"><ellipse cx="1222.57" cy="421.2497" fill="#84BE84" rx="3" ry="3" style="stroke:#038048;stroke-width:1;"/></g><text fill="#000000" font-family="sans-serif" font-size="14" lengthAdjust="spacing" textLength="106.8184" x="1231.57" y="424.5964">getItem(): Item</text><g data-visibility-modifier="PUBLIC_METHOD"><ellipse cx="1222.57" cy="437.5466" fill="#84BE84" rx="3" ry="3" style="stroke:#038048;stroke-width:1;"/></g><text fill="#000000" font-family="sans-serif" font-size="14" lengthAdjust="spacing" textLength="121.8301" x="1231.57" y="440.8932">getQuantity(): int</text><g data-visibility-modifier="PUBLIC_METHOD"><ellipse cx="1222.57" cy="453.8434" fill="#84BE84" rx="3" ry="3" style="stroke:#038048;stroke-width:1;"/></g><text fill="#000000" font-family="sans-serif" font-size="14" lengthAdjust="spacing" textLength="151.4365" x="1231.57" y="457.1901">isAvailable(): boolean</text></g><!--class Inventory--><g class="entity" data-qualified-name="Inventory" data-source-line="40" id="ent0005"><rect fill="#F1F1F1" height="129.4844" rx="2.5" ry="2.5" style="stroke:#181818;stroke-width:0.5;" width="332.4893" x="1202.04" y="23.3"/><ellipse cx="1330.6001" cy="39.3" fill="#ADD1B2" rx="11" ry="11" style="stroke:#181818;stroke-width:1;"/><path d="M1333.5688,44.9406 Q1332.9907,45.2375 1332.3501,45.3781 Q1331.7094,45.5344 1331.0063,45.5344 Q1328.5063,45.5344 1327.1782,43.8938 Q1325.8657,42.2375 1325.8657,39.1125 Q1325.8657,35.9875 1327.1782,34.3313 Q1328.5063,32.675 1331.0063,32.675 Q1331.7094,32.675 1332.3501,32.8313 Q1333.0063,32.9875 1333.5688,33.2844 L1333.5688,36.0031 Q1332.9438,35.425 1332.3501,35.1594 Q1331.7563,34.8781 1331.1313,34.8781 Q1329.7876,34.8781 1329.1001,35.9563 Q1328.4126,37.0188 1328.4126,39.1125 Q1328.4126,41.2063 1329.1001,42.2844 Q1329.7876,43.3469 1331.1313,43.3469 Q1331.7563,43.3469 1332.3501,43.0813 Q1332.9438,42.8 1333.5688,42.2219 L1333.5688,44.9406 Z " fill="#000000"/><text fill="#000000" font-family="sans-serif" font-size="14" lengthAdjust="spacing" textLength="66.8691" x="1351.1001" y="44.1467">Inventory</text><line style="stroke:#181818;stroke-width:0.5;" x1="1203.04" x2="1533.5293" y1="55.3" y2="55.3"/><g data-visibility-modifier="PRIVATE_FIELD"><rect fill="none" height="6" style="stroke:#C82930;stroke-width:1;" width="6" x="1210.04" y="65.9484"/></g><text fill="#000000" font-family="sans-serif" font-size="14" lengthAdjust="spacing" textLength="201.8652" x="1222.04" y="72.2951">inventory: Map&lt;String,Slot&gt;</text><line style="stroke:#181818;stroke-width:0.5;" x1="1203.04" x2="1533.5293" y1="79.5969" y2="79.5969"/><g data-visibility-modifier="PUBLIC_METHOD"><ellipse cx="1213.04" cy="93.2453" fill="#84BE84" rx="3" ry="3" style="stroke:#038048;stroke-width:1;"/></g><text fill="#000000" font-family="sans-serif" font-size="14" lengthAdjust="spacing" textLength="191.3037" x="1222.04" y="96.592">getItem(String slotId): Item</text><g data-visibility-modifier="PUBLIC_METHOD"><ellipse cx="1213.04" cy="109.5422" fill="#84BE84" rx="3" ry="3" style="stroke:#038048;stroke-width:1;"/></g><text fill="#000000" font-family="sans-serif" font-size="14" lengthAdjust="spacing" textLength="306.4893" x="1222.04" y="112.8889">restock(String slotId, int quantity) : boolean</text><g data-visibility-modifier="PUBLIC_METHOD"><ellipse cx="1213.04" cy="125.8391" fill="#84BE84" rx="3" ry="3" style="stroke:#038048;stroke-width:1;"/></g><text fill="#000000" font-family="sans-serif" font-size="14" lengthAdjust="spacing" textLength="240.3721" x="1222.04" y="129.1857">isAvailable(String slotId) : boolean</text><g data-visibility-modifier="PUBLIC_METHOD"><ellipse cx="1213.04" cy="142.1359" fill="#84BE84" rx="3" ry="3" style="stroke:#038048;stroke-width:1;"/></g><text fill="#000000" font-family="sans-serif" font-size="14" lengthAdjust="spacing" textLength="163.8711" x="1222.04" y="145.4826">addSlot(Slot slot) : void</text></g><!--class VendingMachineDemo--><g class="entity" data-qualified-name="VendingMachineDemo" data-source-line="50" id="ent0007"><rect fill="#F1F1F1" height="48" rx="2.5" ry="2.5" style="stroke:#181818;stroke-width:0.5;" width="189.8008" x="788.39" y="64.04"/><ellipse cx="803.39" cy="80.04" fill="#ADD1B2" rx="11" ry="11" style="stroke:#181818;stroke-width:1;"/><path d="M806.3588,85.6806 Q805.7806,85.9775 805.14,86.1181 Q804.4994,86.2744 803.7963,86.2744 Q801.2963,86.2744 799.9681,84.6337 Q798.6556,82.9775 798.6556,79.8525 Q798.6556,76.7275 799.9681,75.0712 Q801.2963,73.415 803.7963,73.415 Q804.4994,73.415 805.14,73.5712 Q805.7963,73.7275 806.3588,74.0244 L806.3588,76.7431 Q805.7338,76.165 805.14,75.8994 Q804.5463,75.6181 803.9213,75.6181 Q802.5775,75.6181 801.89,76.6962 Q801.2025,77.7587 801.2025,79.8525 Q801.2025,81.9462 801.89,83.0244 Q802.5775,84.0869 803.9213,84.0869 Q804.5463,84.0869 805.14,83.8212 Q805.7338,83.54 806.3588,82.9619 L806.3588,85.6806 Z " fill="#000000"/><text fill="#000000" font-family="sans-serif" font-size="14" lengthAdjust="spacing" textLength="157.8008" x="817.39" y="84.8867">VendingMachineDemo</text><line style="stroke:#181818;stroke-width:0.5;" x1="789.39" x2="977.1908" y1="96.04" y2="96.04"/><line style="stroke:#181818;stroke-width:0.5;" x1="789.39" x2="977.1908" y1="104.04" y2="104.04"/></g><!--class VendingMachineState--><g class="entity" data-qualified-name="VendingMachineState" data-source-line="56" id="ent0009"><rect fill="#F1F1F1" height="129.4844" rx="2.5" ry="2.5" style="stroke:#181818;stroke-width:0.5;" width="483.2354" x="56.67" y="565.24"/><ellipse cx="217.4068" cy="581.24" fill="#B4A7E5" rx="11" ry="11" style="stroke:#181818;stroke-width:1;"/><path d="M213.3287,577.0056 L213.3287,574.8494 L220.7193,574.8494 L220.7193,577.0056 L218.2506,577.0056 L218.2506,585.0838 L220.7193,585.0838 L220.7193,587.24 L213.3287,587.24 L213.3287,585.0838 L215.7974,585.0838 L215.7974,577.0056 L213.3287,577.0056 Z " fill="#000000"/><text fill="#000000" font-family="sans-serif" font-size="14" font-style="italic" lengthAdjust="spacing" textLength="153.2617" x="237.9068" y="586.0867">VendingMachineState</text><line style="stroke:#181818;stroke-width:0.5;" x1="57.67" x2="538.9054" y1="597.24" y2="597.24"/><line style="stroke:#181818;stroke-width:0.5;" x1="57.67" x2="538.9054" y1="605.24" y2="605.24"/><g data-visibility-modifier="PUBLIC_METHOD"><ellipse cx="67.67" cy="618.8884" fill="#84BE84" rx="3" ry="3" style="stroke:#038048;stroke-width:1;"/></g><text fill="#000000" font-family="sans-serif" font-size="14" lengthAdjust="spacing" textLength="452.1357" x="76.67" y="622.2351">void selectItem(vendingMachine: VendingMachine, String slotId)</text><g data-visibility-modifier="PUBLIC_METHOD"><ellipse cx="67.67" cy="635.1853" fill="#84BE84" rx="3" ry="3" style="stroke:#038048;stroke-width:1;"/></g><text fill="#000000" font-family="sans-serif" font-size="14" lengthAdjust="spacing" textLength="457.2354" x="76.67" y="638.532">void insertMoney(vendingMachine: VendingMachine, int amount)</text><g data-visibility-modifier="PUBLIC_METHOD"><ellipse cx="67.67" cy="651.4822" fill="#84BE84" rx="3" ry="3" style="stroke:#038048;stroke-width:1;"/></g><text fill="#000000" font-family="sans-serif" font-size="14" lengthAdjust="spacing" textLength="405.8496" x="76.67" y="654.8289">boolean dispenseItem(vendingMachine: VendingMachine)</text><g data-visibility-modifier="PUBLIC_METHOD"><ellipse cx="67.67" cy="667.7791" fill="#84BE84" rx="3" ry="3" style="stroke:#038048;stroke-width:1;"/></g><text fill="#000000" font-family="sans-serif" font-size="14" lengthAdjust="spacing" textLength="412.7813" x="76.67" y="671.1257">void cancelTransaction(vendingMachine: VendingMachine)</text><g data-visibility-modifier="PUBLIC_METHOD"><ellipse cx="67.67" cy="684.0759" fill="#84BE84" rx="3" ry="3" style="stroke:#038048;stroke-width:1;"/></g><text fill="#000000" font-family="sans-serif" font-size="14" lengthAdjust="spacing" textLength="195.3574" x="76.67" y="687.4226">getStatus() : MachineStatus</text></g><!--class IdleState--><g class="entity" data-qualified-name="IdleState" data-source-line="66" id="ent0011"><rect fill="#F1F1F1" height="48" rx="2.5" ry="2.5" style="stroke:#181818;stroke-width:0.5;" width="94.5762" x="7" y="343.16"/><ellipse cx="22" cy="359.16" fill="#ADD1B2" rx="11" ry="11" style="stroke:#181818;stroke-width:1;"/><path d="M24.9688,364.8006 Q24.3906,365.0975 23.75,365.2381 Q23.1094,365.3944 22.4063,365.3944 Q19.9063,365.3944 18.5781,363.7538 Q17.2656,362.0975 17.2656,358.9725 Q17.2656,355.8475 18.5781,354.1913 Q19.9063,352.535 22.4063,352.535 Q23.1094,352.535 23.75,352.6913 Q24.4063,352.8475 24.9688,353.1444 L24.9688,355.8631 Q24.3438,355.285 23.75,355.0194 Q23.1563,354.7381 22.5313,354.7381 Q21.1875,354.7381 20.5,355.8163 Q19.8125,356.8788 19.8125,358.9725 Q19.8125,361.0663 20.5,362.1444 Q21.1875,363.2069 22.5313,363.2069 Q23.1563,363.2069 23.75,362.9413 Q24.3438,362.66 24.9688,362.0819 L24.9688,364.8006 Z " fill="#000000"/><text fill="#000000" font-family="sans-serif" font-size="14" lengthAdjust="spacing" textLength="62.5762" x="36" y="364.0067">IdleState</text><line style="stroke:#181818;stroke-width:0.5;" x1="8" x2="100.5762" y1="375.16" y2="375.16"/><line style="stroke:#181818;stroke-width:0.5;" x1="8" x2="100.5762" y1="383.16" y2="383.16"/></g><!--class ItemSelectedState--><g class="entity" data-qualified-name="ItemSelectedState" data-source-line="70" id="ent0012"><rect fill="#F1F1F1" height="48" rx="2.5" ry="2.5" style="stroke:#181818;stroke-width:0.5;" width="161.6162" x="136.48" y="343.16"/><ellipse cx="151.48" cy="359.16" fill="#ADD1B2" rx="11" ry="11" style="stroke:#181818;stroke-width:1;"/><path d="M154.4488,364.8006 Q153.8706,365.0975 153.23,365.2381 Q152.5894,365.3944 151.8863,365.3944 Q149.3863,365.3944 148.0581,363.7538 Q146.7456,362.0975 146.7456,358.9725 Q146.7456,355.8475 148.0581,354.1913 Q149.3863,352.535 151.8863,352.535 Q152.5894,352.535 153.23,352.6913 Q153.8863,352.8475 154.4488,353.1444 L154.4488,355.8631 Q153.8238,355.285 153.23,355.0194 Q152.6363,354.7381 152.0113,354.7381 Q150.6675,354.7381 149.98,355.8163 Q149.2925,356.8788 149.2925,358.9725 Q149.2925,361.0663 149.98,362.1444 Q150.6675,363.2069 152.0113,363.2069 Q152.6363,363.2069 153.23,362.9413 Q153.8238,362.66 154.4488,362.0819 L154.4488,364.8006 Z " fill="#000000"/><text fill="#000000" font-family="sans-serif" font-size="14" lengthAdjust="spacing" textLength="129.6162" x="165.48" y="364.0067">ItemSelectedState</text><line style="stroke:#181818;stroke-width:0.5;" x1="137.48" x2="297.0962" y1="375.16" y2="375.16"/><line style="stroke:#181818;stroke-width:0.5;" x1="137.48" x2="297.0962" y1="383.16" y2="383.16"/></g><!--class HasMoneyState--><g class="entity" data-qualified-name="HasMoneyState" data-source-line="74" id="ent0013"><rect fill="#F1F1F1" height="64.2969" rx="2.5" ry="2.5" style="stroke:#181818;stroke-width:0.5;" width="290.749" x="332.91" y="335.01"/><ellipse cx="419.0975" cy="351.01" fill="#ADD1B2" rx="11" ry="11" style="stroke:#181818;stroke-width:1;"/><path d="M422.0663,356.6506 Q421.4881,356.9475 420.8475,357.0881 Q420.2069,357.2444 419.5038,357.2444 Q417.0038,357.2444 415.6756,355.6038 Q414.3631,353.9475 414.3631,350.8225 Q414.3631,347.6975 415.6756,346.0413 Q417.0038,344.385 419.5038,344.385 Q420.2069,344.385 420.8475,344.5413 Q421.5038,344.6975 422.0663,344.9944 L422.0663,347.7131 Q421.4413,347.135 420.8475,346.8694 Q420.2538,346.5881 419.6288,346.5881 Q418.285,346.5881 417.5975,347.6663 Q416.91,348.7288 416.91,350.8225 Q416.91,352.9163 417.5975,353.9944 Q418.285,355.0569 419.6288,355.0569 Q420.2538,355.0569 420.8475,354.7913 Q421.4413,354.51 422.0663,353.9319 L422.0663,356.6506 Z " fill="#000000"/><text fill="#000000" font-family="sans-serif" font-size="14" lengthAdjust="spacing" textLength="109.874" x="439.5975" y="355.8567">HasMoneyState</text><line style="stroke:#181818;stroke-width:0.5;" x1="333.91" x2="622.659" y1="367.01" y2="367.01"/><g data-visibility-modifier="PRIVATE_FIELD"><rect fill="none" height="6" style="stroke:#C82930;stroke-width:1;" width="6" x="340.91" y="377.6584"/></g><text fill="#000000" font-family="sans-serif" font-size="14" lengthAdjust="spacing" textLength="264.749" x="352.91" y="384.0051">scheduler: ScheduledExecutorService</text><line style="stroke:#181818;stroke-width:0.5;" x1="333.91" x2="622.659" y1="391.3069" y2="391.3069"/></g><!--class Coin--><g class="entity" data-qualified-name="Coin" data-source-line="84" id="ent0017"><rect fill="#F1F1F1" height="162.0781" rx="2.5" ry="2.5" style="stroke:#181818;stroke-width:0.5;" width="138.1367" x="1569.22" y="7"/><ellipse cx="1618.4866" cy="23" fill="#EB937F" rx="11" ry="11" style="stroke:#181818;stroke-width:1;"/><path d="M1622.596,29 L1614.8772,29 L1614.8772,16.6094 L1622.596,16.6094 L1622.596,18.7656 L1617.3304,18.7656 L1617.3304,21.4375 L1622.096,21.4375 L1622.096,23.5938 L1617.3304,23.5938 L1617.3304,26.8438 L1622.596,26.8438 L1622.596,29 Z " fill="#000000"/><text fill="#000000" font-family="sans-serif" font-size="14" lengthAdjust="spacing" textLength="31.1035" x="1638.9866" y="27.8467">Coin</text><line style="stroke:#181818;stroke-width:0.5;" x1="1570.22" x2="1706.3567" y1="39" y2="39"/><g data-visibility-modifier="PRIVATE_FIELD"><rect fill="none" height="6" style="stroke:#C82930;stroke-width:1;" width="6" x="1577.22" y="49.6484"/></g><text fill="#000000" font-family="sans-serif" font-size="14" lengthAdjust="spacing" textLength="70.1094" x="1589.22" y="55.9951">value : int</text><line style="stroke:#181818;stroke-width:0.5;" x1="1570.22" x2="1706.3567" y1="63.2969" y2="63.2969"/><text fill="#000000" font-family="sans-serif" font-size="14" lengthAdjust="spacing" textLength="50.1689" x="1589.22" y="80.292">ONE(1)</text><text fill="#000000" font-family="sans-serif" font-size="14" lengthAdjust="spacing" textLength="53.2451" x="1589.22" y="96.5889">TWO(2)</text><text fill="#000000" font-family="sans-serif" font-size="14" lengthAdjust="spacing" textLength="50.4355" x="1589.22" y="112.8857">FIVE(5)</text><text fill="#000000" font-family="sans-serif" font-size="14" lengthAdjust="spacing" textLength="56.6084" x="1589.22" y="129.1826">TEN(10)</text><g data-visibility-modifier="PACKAGE_PRIVATE_METHOD"><polygon fill="#4177AF" points="1580.22,138.1328,1576.22,144.1328,1584.22,144.1328" style="stroke:#1963A0;stroke-width:1;"/></g><text fill="#000000" font-family="sans-serif" font-size="14" lengthAdjust="spacing" textLength="112.1367" x="1589.22" y="145.4795">Coin(value : int)</text><g data-visibility-modifier="PUBLIC_METHOD"><ellipse cx="1580.22" cy="158.4297" fill="#84BE84" rx="3" ry="3" style="stroke:#038048;stroke-width:1;"/></g><text fill="#000000" font-family="sans-serif" font-size="14" lengthAdjust="spacing" textLength="105.3145" x="1589.22" y="161.7764">getValue() : int</text></g><!--class MachineStatus--><g class="entity" data-qualified-name="MachineStatus" data-source-line="96" id="ent0018"><rect fill="#F1F1F1" height="96.8906" rx="2.5" ry="2.5" style="stroke:#181818;stroke-width:0.5;" width="135.2158" x="230.68" y="754.72"/><ellipse cx="245.68" cy="770.72" fill="#EB937F" rx="11" ry="11" style="stroke:#181818;stroke-width:1;"/><path d="M249.7894,776.72 L242.0706,776.72 L242.0706,764.3294 L249.7894,764.3294 L249.7894,766.4856 L244.5238,766.4856 L244.5238,769.1575 L249.2894,769.1575 L249.2894,771.3138 L244.5238,771.3138 L244.5238,774.5638 L249.7894,774.5638 L249.7894,776.72 Z " fill="#000000"/><text fill="#000000" font-family="sans-serif" font-size="14" lengthAdjust="spacing" textLength="103.2158" x="259.68" y="775.5667">MachineStatus</text><line style="stroke:#181818;stroke-width:0.5;" x1="231.68" x2="364.8958" y1="786.72" y2="786.72"/><text fill="#000000" font-family="sans-serif" font-size="14" lengthAdjust="spacing" textLength="31.5547" x="236.68" y="803.7151">IDLE</text><text fill="#000000" font-family="sans-serif" font-size="14" lengthAdjust="spacing" textLength="112.9365" x="236.68" y="820.012">ITEM_SELECTED</text><text fill="#000000" font-family="sans-serif" font-size="14" lengthAdjust="spacing" textLength="85.8936" x="236.68" y="836.3089">DISPENSING</text><line style="stroke:#181818;stroke-width:0.5;" x1="231.68" x2="364.8958" y1="843.6106" y2="843.6106"/></g><!--class VendingMachineObserver--><g class="entity" data-qualified-name="VendingMachineObserver" data-source-line="105" id="ent0020"><rect fill="#F1F1F1" height="64.2969" rx="2.5" ry="2.5" style="stroke:#181818;stroke-width:0.5;" width="350.3789" x="1628.1" y="335.01"/><ellipse cx="1708.8256" cy="351.01" fill="#B4A7E5" rx="11" ry="11" style="stroke:#181818;stroke-width:1;"/><path d="M1704.7475,346.7756 L1704.7475,344.6194 L1712.1381,344.6194 L1712.1381,346.7756 L1709.6693,346.7756 L1709.6693,354.8538 L1712.1381,354.8538 L1712.1381,357.01 L1704.7475,357.01 L1704.7475,354.8538 L1707.2162,354.8538 L1707.2162,346.7756 L1704.7475,346.7756 Z " fill="#000000"/><text fill="#000000" font-family="sans-serif" font-size="14" font-style="italic" lengthAdjust="spacing" textLength="180.4277" x="1729.3256" y="355.8567">VendingMachineObserver</text><line style="stroke:#181818;stroke-width:0.5;" x1="1629.1" x2="1977.4789" y1="367.01" y2="367.01"/><line style="stroke:#181818;stroke-width:0.5;" x1="1629.1" x2="1977.4789" y1="375.01" y2="375.01"/><text fill="#000000" font-family="sans-serif" font-size="14" lengthAdjust="spacing" textLength="338.3789" x="1634.1" y="392.0051">void onEvent(vendingMachine:VendingMachine)</text></g><!--class VendingMachineSubject--><g class="entity" data-qualified-name="VendingMachineSubject" data-source-line="110" id="ent0021"><rect fill="#F1F1F1" height="96.8906" rx="2.5" ry="2.5" style="stroke:#181818;stroke-width:0.5;" width="454.8252" x="655.88" y="581.53"/><ellipse cx="794.7726" cy="597.53" fill="#B4A7E5" rx="11" ry="11" style="stroke:#181818;stroke-width:1;"/><path d="M790.6945,593.2956 L790.6945,591.1394 L798.0851,591.1394 L798.0851,593.2956 L795.6163,593.2956 L795.6163,601.3738 L798.0851,601.3738 L798.0851,603.53 L790.6945,603.53 L790.6945,601.3738 L793.1632,601.3738 L793.1632,593.2956 L790.6945,593.2956 Z " fill="#000000"/><text fill="#000000" font-family="sans-serif" font-size="14" font-style="italic" lengthAdjust="spacing" textLength="168.54" x="815.2726" y="602.3767">VendingMachineSubject</text><line style="stroke:#181818;stroke-width:0.5;" x1="656.88" x2="1109.7052" y1="613.53" y2="613.53"/><line style="stroke:#181818;stroke-width:0.5;" x1="656.88" x2="1109.7052" y1="621.53" y2="621.53"/><g data-visibility-modifier="PUBLIC_METHOD"><ellipse cx="666.88" cy="635.1784" fill="#84BE84" rx="3" ry="3" style="stroke:#038048;stroke-width:1;"/></g><text fill="#000000" font-family="sans-serif" font-size="14" lengthAdjust="spacing" textLength="111.5557" x="675.88" y="638.5251">notifyAll() : void</text><g data-visibility-modifier="PUBLIC_METHOD"><ellipse cx="666.88" cy="651.4753" fill="#84BE84" rx="3" ry="3" style="stroke:#038048;stroke-width:1;"/></g><text fill="#000000" font-family="sans-serif" font-size="14" lengthAdjust="spacing" textLength="401.707" x="675.88" y="654.822">addSubscriber(VendingMachineObserver observer) : void</text><g data-visibility-modifier="PUBLIC_METHOD"><ellipse cx="666.88" cy="667.7722" fill="#84BE84" rx="3" ry="3" style="stroke:#038048;stroke-width:1;"/></g><text fill="#000000" font-family="sans-serif" font-size="14" lengthAdjust="spacing" textLength="428.8252" x="675.88" y="671.1189">removeSubscriber(VendingMachineObserver observer) : void</text></g><!--class DisplayPanel--><g class="entity" data-qualified-name="DisplayPanel" data-source-line="118" id="ent0022"><rect fill="#F1F1F1" height="48" rx="2.5" ry="2.5" style="stroke:#181818;stroke-width:0.5;" width="122.002" x="1742.29" y="64.04"/><ellipse cx="1757.29" cy="80.04" fill="#ADD1B2" rx="11" ry="11" style="stroke:#181818;stroke-width:1;"/><path d="M1760.2588,85.6806 Q1759.6806,85.9775 1759.04,86.1181 Q1758.3994,86.2744 1757.6963,86.2744 Q1755.1963,86.2744 1753.8681,84.6337 Q1752.5556,82.9775 1752.5556,79.8525 Q1752.5556,76.7275 1753.8681,75.0712 Q1755.1963,73.415 1757.6963,73.415 Q1758.3994,73.415 1759.04,73.5712 Q1759.6963,73.7275 1760.2588,74.0244 L1760.2588,76.7431 Q1759.6338,76.165 1759.04,75.8994 Q1758.4463,75.6181 1757.8213,75.6181 Q1756.4775,75.6181 1755.79,76.6962 Q1755.1025,77.7587 1755.1025,79.8525 Q1755.1025,81.9462 1755.79,83.0244 Q1756.4775,84.0869 1757.8213,84.0869 Q1758.4463,84.0869 1759.04,83.8212 Q1759.6338,83.54 1760.2588,82.9619 L1760.2588,85.6806 Z " fill="#000000"/><text fill="#000000" font-family="sans-serif" font-size="14" lengthAdjust="spacing" textLength="90.002" x="1771.29" y="84.8867">DisplayPanel</text><line style="stroke:#181818;stroke-width:0.5;" x1="1743.29" x2="1863.292" y1="96.04" y2="96.04"/><line style="stroke:#181818;stroke-width:0.5;" x1="1743.29" x2="1863.292" y1="104.04" y2="104.04"/></g><!--reverse link Inventory to Slot--><g class="link" data-entity-1="ent0005" data-entity-2="ent0004" data-link-type="composition" data-source-line="48" id="lnk6"><path codeLine="48" d="M1349.7412,164.6145 C1341.2712,199.1445 1333.5,230.83 1324.03,269.4" fill="none" id="Inventory-backto-Slot" style="stroke:#181818;stroke-width:1;stroke-dasharray:7,7;"/><polygon fill="#181818" points="1352.6,152.96,1347.2858,157.8343,1349.7412,164.6145,1355.0554,159.7402,1352.6,152.96" style="stroke:#181818;stroke-width:1;"/><text fill="#000000" font-family="sans-serif" font-size="13" lengthAdjust="spacing" textLength="8.271" x="1342.4618" y="172.9549">1</text><text fill="#000000" font-family="sans-serif" font-size="13" lengthAdjust="spacing" textLength="36.5625" x="1288.4723" y="258.742">many</text></g><!--link Item to Slot--><g class="link" data-entity-1="ent0003" data-entity-2="ent0004" data-link-type="aggregation" data-source-line="54" id="lnk8"><path codeLine="54" d="M1144.91,161.13 C1169.95,194.16 1192.7424,224.2359 1219.7124,259.8259" fill="none" id="Item-to-Slot" style="stroke:#181818;stroke-width:1;"/><polygon fill="none" points="1226.96,269.39,1226.5242,262.1921,1219.7124,259.8259,1220.1482,267.0238,1226.96,269.39" style="stroke:#181818;stroke-width:1;"/><text fill="#000000" font-family="sans-serif" font-size="13" lengthAdjust="spacing" textLength="8.271" x="1141.7481" y="180.8844">1</text><text fill="#000000" font-family="sans-serif" font-size="13" lengthAdjust="spacing" textLength="36.5625" x="1184.2737" y="258.7313">many</text></g><!--reverse link VendingMachine to VendingMachineState--><g class="link" data-entity-1="ent0002" data-entity-2="ent0009" data-link-type="aggregation" data-source-line="64" id="lnk10"><path codeLine="64" d="M647.7067,502.3438 C641.9367,505.1338 646.99,502.61 641.29,505.24 C594.55,526.71 542.93,547.02 494.23,564.74" fill="none" id="VendingMachine-backto-VendingMachineState" style="stroke:#181818;stroke-width:1;"/><polygon fill="none" points="658.51,497.12,651.3671,496.1308,647.7067,502.3438,654.8496,503.333,658.51,497.12" style="stroke:#181818;stroke-width:1;"/></g><!--link IdleState to VendingMachineState--><g class="link" data-entity-1="ent0011" data-entity-2="ent0009" data-link-type="extension" data-source-line="79" id="lnk14"><path codeLine="79" d="M61.22,391.6 C70.69,420.7 89.95,470.71 119.29,505.24 C138.25,527.55 147.4922,537.2145 171.5822,554.4545" fill="none" id="IdleState-to-VendingMachineState" style="stroke:#181818;stroke-width:1;stroke-dasharray:7,7;"/><polygon fill="none" points="186.22,564.93,175.0741,549.5752,168.0904,559.3337,186.22,564.93" style="stroke:#181818;stroke-width:1;"/></g><!--link ItemSelectedState to VendingMachineState--><g class="link" data-entity-1="ent0012" data-entity-2="ent0009" data-link-type="extension" data-source-line="80" id="lnk15"><path codeLine="80" d="M224.48,391.3 C236.46,429.89 255.5918,491.4798 273.0718,547.7698" fill="none" id="ItemSelectedState-to-VendingMachineState" style="stroke:#181818;stroke-width:1;stroke-dasharray:7,7;"/><polygon fill="none" points="278.41,564.96,278.8019,545.9904,267.3418,549.5492,278.41,564.96" style="stroke:#181818;stroke-width:1;"/></g><!--link HasMoneyState to VendingMachineState--><g class="link" data-entity-1="ent0013" data-entity-2="ent0009" data-link-type="extension" data-source-line="81" id="lnk16"><path codeLine="81" d="M456.58,399.62 C428.48,440.33 389.0643,497.4457 352.8443,549.9257" fill="none" id="HasMoneyState-to-VendingMachineState" style="stroke:#181818;stroke-width:1;stroke-dasharray:7,7;"/><polygon fill="none" points="342.62,564.74,357.7824,553.3338,347.9062,546.5176,342.62,564.74" style="stroke:#181818;stroke-width:1;"/></g><!--reverse link VendingMachineState to MachineStatus--><g class="link" data-entity-1="ent0009" data-entity-2="ent0018" data-link-type="dependency" data-source-line="103" id="lnk19"><path codeLine="103" d="M298.29,701.21 C298.29,720.85 298.29,736.09 298.29,754.43" fill="none" id="VendingMachineState-backto-MachineStatus" style="stroke:#181818;stroke-width:1;"/><polygon fill="#181818" points="298.29,695.21,294.29,704.21,298.29,700.21,302.29,704.21,298.29,695.21" style="stroke:#181818;stroke-width:1;"/></g><!--link DisplayPanel to VendingMachineObserver--><g class="link" data-entity-1="ent0022" data-entity-2="ent0020" data-link-type="extension" data-source-line="121" id="lnk23"><path codeLine="121" d="M1803.29,112.19 C1803.29,161.75 1803.29,260.18 1803.29,316.52" fill="none" id="DisplayPanel-to-VendingMachineObserver" style="stroke:#181818;stroke-width:1;stroke-dasharray:7,7;"/><polygon fill="none" points="1803.29,334.52,1809.29,316.52,1797.29,316.52,1803.29,334.52" style="stroke:#181818;stroke-width:1;"/></g><!--link VendingMachine to VendingMachineSubject--><g class="link" data-entity-1="ent0002" data-entity-2="ent0021" data-link-type="extension" data-source-line="123" id="lnk24"><path codeLine="123" d="M883.29,505.44 C883.29,532.69 883.29,541.53 883.29,563.2" fill="none" id="VendingMachine-to-VendingMachineSubject" style="stroke:#181818;stroke-width:1;stroke-dasharray:7,7;"/><polygon fill="none" points="883.29,581.2,889.29,563.2,877.29,563.2,883.29,581.2" style="stroke:#181818;stroke-width:1;"/></g><!--link VendingMachineDemo to VendingMachine--><g class="link" data-entity-1="ent0007" data-entity-2="ent0002" data-link-type="dependency" data-source-line="125" id="lnk25"><path codeLine="125" d="M883.29,112.19 C883.29,138.53 883.29,177.76 883.29,222.82" fill="none" id="VendingMachineDemo-to-VendingMachine" style="stroke:#181818;stroke-width:1;"/><polygon fill="#181818" points="883.29,228.82,887.29,219.82,883.29,223.82,879.29,219.82,883.29,228.82" style="stroke:#181818;stroke-width:1;"/></g><?plantuml-src dLNVJzim47xFNs7rAHsq6fFsKY4aHBCj4YrCgTZZv3W6F5oRnKwrYi7VFfyTDtQQiesNo3dVZ-_klZiJZfL2DrHKJDmjCBbdWZub24sOs52XPRsTeTmVGKwQkZP_XSQQpdg6LWXA9UPO47FFX8P_MIfQRsYjq0nTCgLFOxkhzlhCw1ufwfodcttVWm77CxIHh7Asd1ATQxfE2rqRFQIur7arHfqE4oQONaX1jwc1X_1QDaA76XLJZzHeMJzmKKh9AHPmHo0llgg5maGpATBGaDnJyd2-mOpZad6cj_ie0bT2QdQxFUSyye6hofSZ7QuIyjKCpMgwbXlw5aiJi33mKlXOeBlBvoH9YEK7L09O0RmmnxmoAYwrJhZ4QzeJ4waqyYGmeUwexKrUfUD80AQ1wCAOcTzd7nsGjT5T8NjHy2CcfjXT88jdPb6x_vyD5ZfIWJY5TPQE8tSMGEiHhlhWGRPp3CAlhUz8cQcM1fo2t7Tzbz9kf7nLksbRuCTJX-SO09uXvn7v-36bGZ2efafByX2h70Cgv2iGSn2CGgYlq1LKNwNABYKqEXcXTzCf6gsns8vi-tpUCI_dXhHFYJKsILYxoKJ6TWOyhMyneKEZxwft111GCFlnvkWlZMCKfndu27V3tvm4kyDvQ6k5elNnkfSmjjyiUBTQ_idspgtBHjaj4XIdKL3Os0R9oMHmPtjQLjm9a6jBD_s5hIwjsh9tbr-milKA-Z5HPX5M3QUrcQpsM6M_A6aCFGgpW1YXThbquQRJtsU3mFPY7rQDa1nMIn8gcZMwa4mWX_TgcQKdhfohRrVf1tVybDzawSTMd2tJa_VZnAM7DfWtj5riLlHYtQM1VDnDxGr8RNT0_xcD7tNAuSZdbvaxhBB5zoAxp2vMsTnAvdbndIsBVFdP5cuWBtHgMXkt_-3i-FV0XRNiaoA3yUrphayv27vm8floX-bJEvDey7dpMwGf5QbP-LylbTjmyCozmHo0juoTc_daU7kD1ULFS14AXdZZlUvDqn37N17wgh3fp6xhQ_y1?></g></svg>